# File created by Blade
# Date/Time:  Thu Mar 15 16:00:31 2018
#---------------------------------------------------------
:version 1.10
:name HOM
:units
  mass 1.0
  length 1.000000
  angle deg
:documentation
     Acclaim Skeleton File
:root
   axis xyz
   order TX TY TZ RX RZ RY
   position 0.000000 0.000000 0.000000
   orientation 0 0 0
:bonedata
   begin
      id 1
      name Spine_dum
      direction 0.000000 0.554700 0.832050
      length 3.185137
      axis 0.0 0.0 0.0 xyz
   end
   begin
      id 2
      name RightUpLeg_dum
      direction -0.959879 0.000000 -0.280414
      length 3.741437
      axis 0.0 0.0 0.0 xyz
   end
   begin
      id 3
      name LeftUpLeg_dum
      direction 0.959879 0.000000 -0.280414
      length 3.741437
      axis 0.0 0.0 0.0 xyz
   end
   begin
      id 4
      name Spine
      direction 0.000000 0.173648 0.984808
      length 3.533592
      axis -10.0 0.0 0.0 xyz
      dof rx rz ry
   end
   begin
      id 5
      name Spine1
      direction 0.000000 0.087156 0.996195
      length 3.533592
      axis -5.0 0.0 0.0 xyz
      dof rx rz ry
   end
   begin
      id 6
      name Spine2
      direction 0.000000 0.000000 1.000000
      length 3.533592
      axis 0.0 0.0 0.0 xyz
      dof rx rz ry
   end
   begin
      id 7
      name Spine3
      direction 0.000000 -0.141421 0.989949
      length 0.000000
      axis 0.0 0.0 0.0 xyz
      dof rx rz ry
   end
   begin
      id 8
      name Spine3_dum1
      direction 0.000000 -0.141421 0.989949
      length 9.369850
      axis 0.0 0.0 0.0 xyz
   end
   begin
      id 9
      name Spine3_dum2
      direction -0.174242 -0.290403 0.940907
      length 6.947577
      axis 0.0 0.0 0.0 xyz
   end
   begin
      id 10
      name Spine3_dum3
      direction 0.174242 -0.290403 0.940907
      length 6.947577
      axis 0.0 0.0 0.0 xyz
   end
   begin
      id 11
      name Neck
      direction 0.000000 -0.173648 0.984808
      length 4.858689
      axis 10.0 0.0 0.0 xyz
      dof rx rz ry
   end
   begin
      id 12
      name Head
      direction 0.000000 0.000000 1.000000
      length 5.720002
      axis 0.0 0.0 0.0 xyz
      dof rx rz ry
   end
   begin
      id 13
      name RightShoulder
      direction -1.000000 0.000000 0.000000
      length 6.012446
      axis -180.0 0.0 -180.0 xyz
      dof rz rx ry
   end
   begin
      id 14
      name RightArm
      direction -1.000000 0.000000 0.000000
      length 11.728112
      axis -180.0 0.0 -180.0 xyz
      dof ry rz rx
   end
   begin
      id 15
      name RightForeArm
      direction -1.000000 0.000000 0.000000
      length 4.841601
      axis -180.0 0.0 -180.0 xyz
      dof rx ry rz
   end
   begin
      id 16
      name RightForeArmRoll
      direction -1.000000 0.000000 0.000000
      length 5.003964
      axis -180.0 0.0 -180.0 xyz
      dof rx ry rz
   end
   begin
      id 17
      name RightHand
      direction -1.000000 0.000000 0.000000
      length 0.000000
      axis -180.0 0.0 -180.0 xyz
      dof rx ry rz
   end
   begin
      id 18
      name RightHand_dum1
      direction -1.000000 0.000000 0.000000
      length 2.836875
      axis -180.0 0.0 -180.0 xyz
   end
   begin
      id 19
      name RightHand_dum2
      direction -0.486664 -0.811107 -0.324443
      length 2.331690
      axis -180.0 0.0 -180.0 xyz
   end
   begin
      id 20
      name RightHandEnd
      direction -1.000000 0.000000 0.000000
      length 2.836875
      axis 90.0 0.0 -180.0 xyz
      dof rx ry rz
   end
   begin
      id 21
      name RightHandThumb1
      direction -0.965926 -0.258819 0.000000
      length 2.836875
      axis -10.0 0.0 -165.0 xyz
      dof rx ry rz
   end
   begin
      id 22
      name LeftShoulder
      direction 1.000000 0.000000 0.000000
      length 6.012446
      axis 0.0 0.0 0.0 xyz
      dof rz rx ry
   end
   begin
      id 23
      name LeftArm
      direction 1.000000 0.000000 0.000000
      length 11.728112
      axis 0.0 0.0 0.0 xyz
      dof ry rz rx
   end
   begin
      id 24
      name LeftForeArm
      direction 1.000000 0.000000 0.000000
      length 4.841601
      axis 0.0 0.0 0.0 xyz
      dof rx ry rz
   end
   begin
      id 25
      name LeftForeArmRoll
      direction 1.000000 0.000000 0.000000
      length 5.003964
      axis 0.0 0.0 0.0 xyz
      dof rx ry rz
   end
   begin
      id 26
      name LeftHand
      direction 1.000000 0.000000 0.000000
      length 0.000000
      axis 0.0 0.0 0.0 xyz
      dof rx ry rz
   end
   begin
      id 27
      name LeftHand_dum1
      direction 1.000000 0.000000 0.000000
      length 2.836875
      axis 0.0 0.0 0.0 xyz
   end
   begin
      id 28
      name LeftHand_dum2
      direction 0.486664 -0.811107 -0.324443
      length 2.331690
      axis 0.0 0.0 0.0 xyz
   end
   begin
      id 29
      name LeftHandEnd
      direction 1.000000 0.000000 0.000000
      length 2.836875
      axis 90.0 0.0 0.0 xyz
      dof rx ry rz
   end
   begin
      id 30
      name LeftHandThumb1
      direction 0.965926 -0.258819 0.000000
      length 2.836875
      axis 170.0 0.0 -15.0 xyz
      dof rx ry rz
   end
   begin
      id 31
      name RightUpLeg
      direction 0.000000 0.000000 -1.000000
      length 15.861483
      axis 0.0 90.0 0.0 xyz
      dof ry rz rx
   end
   begin
      id 32
      name RightLeg
      direction 0.000000 0.000000 -1.000000
      length 17.164458
      axis 0.0 90.0 0.0 xyz
      dof rx ry rz
   end
   begin
      id 33
      name RightFoot
      direction 0.000000 -0.939693 -0.342020
      length 7.211980
      axis -90.0 20.0 -90.0 xyz
      dof rx rz ry
   end
   begin
      id 34
      name RightToeBase
      direction 0.000000 -1.000000 0.000000
      length 2.905343
      axis -90.0 0.0 -90.0 xyz
      dof ry rz rx
   end
   begin
      id 35
      name LeftUpLeg
      direction 0.000000 0.000000 -1.000000
      length 15.861483
      axis 0.0 90.0 0.0 xyz
      dof ry rz rx
   end
   begin
      id 36
      name LeftLeg
      direction 0.000000 0.000000 -1.000000
      length 17.164458
      axis 0.0 90.0 0.0 xyz
      dof rx ry rz
   end
   begin
      id 37
      name LeftFoot
      direction 0.000000 -0.939693 -0.342020
      length 7.211980
      axis -90.0 20.0 -90.0 xyz
      dof rx rz ry
   end
   begin
      id 38
      name LeftToeBase
      direction 0.000000 -1.000000 0.000000
      length 2.905343
      axis -90.0 0.0 -90.0 xyz
      dof ry rz rx
   end
:hierarchy
   begin
      root Spine_dum RightUpLeg_dum LeftUpLeg_dum
      Spine_dum Spine
      RightUpLeg_dum RightUpLeg
      LeftUpLeg_dum LeftUpLeg
      Spine Spine1
      Spine1 Spine2
      Spine2 Spine3
      Spine3 Spine3_dum1 Spine3_dum2 Spine3_dum3
      Spine3_dum1 Neck
      Spine3_dum2 RightShoulder
      Spine3_dum3 LeftShoulder
      Neck Head
      RightShoulder RightArm
      RightArm RightForeArm
      RightForeArm RightForeArmRoll
      RightForeArmRoll RightHand
      RightHand RightHand_dum1 RightHand_dum2
      RightHand_dum1 RightHandEnd
      RightHand_dum2 RightHandThumb1
      LeftShoulder LeftArm
      LeftArm LeftForeArm
      LeftForeArm LeftForeArmRoll
      LeftForeArmRoll LeftHand
      LeftHand LeftHand_dum1 LeftHand_dum2
      LeftHand_dum1 LeftHandEnd
      LeftHand_dum2 LeftHandThumb1
      RightUpLeg RightLeg
      RightLeg RightFoot
      RightFoot RightToeBase
      LeftUpLeg LeftLeg
      LeftLeg LeftFoot
      LeftFoot LeftToeBase
   end

# File created by Blade
# Date/Time:  Thu Mar 15 15:59:21 2018
# Frame Rate: 120.000 fps
#------------------------------------------------------
:FULLY-SPECIFIED
:DEGREES
11
root -0.212907 38.214233 -0.791214 -89.829468 0.334417 -0.256286
Spine -0.265855 0.075991 0.346633
Spine1 -0.676869 0.007339 0.044252
Spine2 1.614356 0.448387 0.589747
Spine3 0.157354 -0.054426 -0.402471
Neck -1.189016 -0.211388 -0.063717
Head -0.981613 -1.151406 -0.169236
RightShoulder 0.853425 -4.504860 -5.893147
RightArm -68.170219 -18.609604 -9.379622
RightForeArm 0.000000 -0.000000 -31.163628
RightForeArmRoll 4.614231 -0.000000 -0.000000
RightHand -0.000000 7.979784 -3.120353
RightHandEnd 0.000000 -0.000000 0.000000
RightHandThumb1 0.000000 -0.000000 0.000000
LeftShoulder 3.007616 5.312528 6.128756
LeftArm 67.993889 -37.620636 1.653285
LeftForeArm 0.000000 -0.000000 -19.321383
LeftForeArmRoll -4.534064 -0.000000 0.000000
LeftHand -0.000000 -20.424618 1.118987
LeftHandEnd 0.000000 -0.000000 0.000000
LeftHandThumb1 0.000000 -0.000000 0.000000
RightUpLeg 4.538091 -0.916831 10.047846
RightLeg -0.000000 -0.000000 15.076276
RightFoot 3.544345 -15.153614 -2.850411
RightToeBase -0.000000 0.940495 -0.000000
LeftUpLeg -4.737122 1.814658 1.660358
LeftLeg -0.000000 -0.000000 10.515751
LeftFoot -8.451159 -12.584594 -1.609985
LeftToeBase -0.000000 0.780439 -0.000000
12
root -0.207143 38.210785 -0.781330 -89.832008 0.369492 -0.274931
Spine -0.274508 0.073581 0.339901
Spine1 -0.688561 0.004804 0.028413
Spine2 1.645789 0.471062 0.642622
Spine3 0.170541 -0.081087 -0.386709
Neck -1.213835 -0.141549 -0.053981
Head -0.979033 -1.166758 -0.190904
RightShoulder 0.832036 -4.497702 -5.915323
RightArm -68.131561 -18.631330 -9.376847
RightForeArm 0.000000 -0.000000 -31.153072
RightForeArmRoll 4.927022 -0.000000 -0.000000
RightHand 0.000000 7.751483 -3.360535
RightHandEnd 0.000000 -0.000000 0.000000
RightHandThumb1 0.000000 -0.000000 0.000000
LeftShoulder 3.051435 5.261470 6.073484
LeftArm 68.089195 -37.503056 1.582756
LeftForeArm 0.000000 -0.000000 -19.340786
LeftForeArmRoll -4.374081 -0.000000 0.000000
LeftHand -0.000000 -20.174210 1.293732
LeftHandEnd 0.000000 -0.000000 0.000000
LeftHandThumb1 0.000000 -0.000000 0.000000
RightUpLeg 4.601965 -0.913963 10.110722
RightLeg -0.000000 -0.000000 15.075755
RightFoot 3.510825 -15.161858 -2.940881
RightToeBase -0.000000 0.965791 -0.000000
LeftUpLeg -4.685595 1.855623 1.654981
LeftLeg -0.000000 -0.000000 10.473824
LeftFoot -8.449048 -12.572480 -1.633167
LeftToeBase -0.000000 0.788737 -0.000000
13
root -0.203357 38.208743 -0.775919 -89.821556 0.396850 -0.285832
Spine -0.289506 0.072559 0.342542
Spine1 -0.714690 0.004215 0.030944
Spine2 1.695468 0.451028 0.634683
Spine3 0.178302 -0.080906 -0.387761
Neck -1.207580 -0.141008 0.052561
Head -1.025174 -1.131239 -0.257098
RightShoulder 0.879078 -4.574376 -5.907156
RightArm -68.063034 -18.873243 -9.309202
RightForeArm 0.000000 -0.000000 -31.114925
RightForeArmRoll 4.343192 -0.000000 -0.000000
RightHand 0.000000 8.184620 -2.978410
RightHandEnd 0.000000 -0.000000 0.000000
RightHandThumb1 0.000000 -0.000000 0.000000
LeftShoulder 3.101141 5.258034 6.182000
LeftArm 67.854225 -37.957203 1.829485
LeftForeArm 0.000000 -0.000000 -19.266813
LeftForeArmRoll -4.337129 -0.000000 0.000000
LeftHand -0.000000 -20.970461 1.231239
LeftHandEnd 0.000000 -0.000000 0.000000
LeftHandThumb1 0.000000 -0.000000 0.000000
RightUpLeg 4.646638 -0.926296 10.149589
RightLeg -0.000000 -0.000000 15.075779
RightFoot 3.489339 -15.157817 -2.990795
RightToeBase -0.000000 0.919973 -0.000000
LeftUpLeg -4.645250 1.858572 1.645946
LeftLeg -0.000000 -0.000000 10.462246
LeftFoot -8.420408 -12.568497 -1.651916
LeftToeBase -0.000000 0.786133 -0.000000
14
root -0.201144 38.208986 -0.773218 -89.791458 0.421105 -0.286716
Spine -0.293626 0.076022 0.361341
Spine1 -0.719513 0.004254 0.033683
Spine2 1.690273 0.450263 0.625610
Spine3 0.177057 -0.076832 -0.390021
Neck -1.205499 -0.141505 0.096578
Head -1.043428 -1.120389 -0.282918
RightShoulder 0.886251 -4.560215 -5.874807
RightArm -68.073212 -18.786036 -9.271244
RightForeArm 0.000000 -0.000000 -31.131073
RightForeArmRoll 4.329232 -0.000000 -0.000000
RightHand 0.000000 7.920860 -2.937213
RightHandEnd 0.000000 -0.000000 0.000000
RightHandThumb1 0.000000 -0.000000 0.000000
LeftShoulder 3.114828 5.257509 6.226384
LeftArm 67.757011 -38.155819 1.926812
LeftForeArm 0.000000 -0.000000 -19.227146
LeftForeArmRoll -5.228311 -0.000000 0.000000
LeftHand 0.000000 -21.631546 0.604865
LeftHandEnd 0.000000 -0.000000 0.000000
LeftHandThumb1 0.000000 -0.000000 0.000000
RightUpLeg 4.684206 -0.940539 10.087018
RightLeg -0.000000 -0.000000 15.034904
RightFoot 3.494196 -15.166839 -3.025301
RightToeBase -0.000000 0.906533 -0.000000
LeftUpLeg -4.613164 1.823097 1.657095
LeftLeg -0.000000 -0.000000 10.480163
LeftFoot -8.422668 -12.574300 -1.669416
LeftToeBase -0.000000 0.800981 -0.000000
15
root -0.198841 38.211834 -0.767517 -89.781273 0.426232 -0.305056
Spine -0.285992 0.076767 0.361809
Spine1 -0.705484 0.006040 0.040052
Spine2 1.671500 0.464456 0.615653
Spine3 0.175568 -0.068139 -0.383179
Neck -1.213035 -0.144848 0.088171
Head -1.034769 -1.100153 -0.259133
RightShoulder 0.883748 -4.576491 -5.891490
RightArm -68.017433 -18.869116 -9.296941
RightForeArm 0.000000 -0.000000 -31.113434
RightForeArmRoll 4.504851 -0.000000 -0.000000
RightHand -0.000000 8.150206 -3.064738
RightHandEnd 0.000000 -0.000000 0.000000
RightHandThumb1 0.000000 -0.000000 0.000000
LeftShoulder 3.085222 5.095711 6.191727
LeftArm 67.833679 -38.071728 2.023851
LeftForeArm 0.000000 -0.000000 -19.209221
LeftForeArmRoll -5.302568 -0.000000 0.000000
LeftHand 0.000000 -21.601521 0.529792
LeftHandEnd 0.000000 -0.000000 0.000000
LeftHandThumb1 0.000000 -0.000000 0.000000
RightUpLeg 4.698340 -0.956866 10.104804
RightLeg -0.000000 -0.000000 15.050048
RightFoot 3.492252 -15.171680 -3.068571
RightToeBase -0.000000 0.906461 -0.000000
LeftUpLeg -4.598341 1.838859 1.694139
LeftLeg -0.000000 -0.000000 10.459018
LeftFoot -8.443918 -12.568196 -1.729915
LeftToeBase -0.000000 0.831630 -0.000000
16
root -0.239279 38.210401 -0.813572 -89.529678 0.266873 -0.230034
Spine -0.293446 0.075482 0.401092
Spine1 -0.709582 0.003329 0.053956
Spine2 1.516715 0.399814 0.476595
Spine3 0.151712 -0.050101 -0.415165
Neck -1.256675 -0.167911 0.064495
Head -1.050921 -1.062855 -0.288638
RightShoulder 0.910148 -4.596163 -5.970284
RightArm -67.978821 -18.772921 -9.168595
RightForeArm 0.000000 -0.000000 -31.106945
RightForeArmRoll 4.690873 -0.000000 -0.000000
RightHand 0.000000 7.942734 -3.107386
RightHandEnd 0.000000 -0.000000 0.000000
RightHandThumb1 0.000000 -0.000000 0.000000
LeftShoulder 3.077462 5.178046 6.250615
LeftArm 67.700356 -38.077137 1.953406
LeftForeArm 0.000000 -0.000000 -19.232363
LeftForeArmRoll -4.464539 -0.000000 0.000000
LeftHand 0.000000 -21.198090 1.186980
LeftHandEnd 0.000000 -0.000000 0.000000
LeftHandThumb1 0.000000 -0.000000 0.000000
RightUpLeg 4.344109 -1.275430 9.811378
RightLeg -0.000000 -0.000000 15.186602
RightFoot 3.664314 -15.148272 -2.573144
RightToeBase -0.000000 0.961053 -0.000000
LeftUpLeg -4.905452 1.267724 1.343824
LeftLeg -0.000000 -0.000000 10.838799
LeftFoot -8.411272 -12.694277 -1.213923
LeftToeBase -0.000000 0.832738 -0.000000
